<?xml version="1.0" encoding="UTF-8"?>
<svg width="451px" height="115px" viewBox="0 0 451 115" version="1.1" xmlns="http://www.w3.org/2000/svg" xmlns:xlink="http://www.w3.org/1999/xlink">
    <!-- Generator: Sketch 59.1 (86144) - https://sketch.com -->
    <title>Wayfarer-icon-large</title>
    <desc>Created with Sketch.</desc>
    <defs>
        <linearGradient x1="50%" y1="0%" x2="50%" y2="100%" id="linearGradient-1">
            <stop stop-color="#AEAEAE" offset="0%"></stop>
            <stop stop-color="#898989" offset="100%"></stop>
        </linearGradient>
    </defs>
    <g id="Wayfarer-icon-large" stroke="none" stroke-width="1" fill="none" fill-rule="evenodd">
        <g id="Wayfarer-Logo" transform="translate(0.258621, 0.000000)">
            <path d="M91.5406698,93.5747664 L83.9566851,93.5747664 L63.3627756,42.8091155 L42.9538413,93.5747664 L35.3698566,93.5747664 L7.99352177,15.4312675 L0.779487593,13.8352494 L0.779487593,9.35412186 L37.8978515,9.35412186 L37.8978515,13.8352494 L28.2174808,15.4312675 L45.8517866,64.4781297 L65.2125279,16.3520471 L72.9198294,16.3520471 L92.3422291,64.3553591 L106.955273,15.4312675 L96.5350011,13.8352494 L96.5350011,9.35412186 L123.294752,9.35412186 L123.294752,13.8352494 L116.080718,15.4312675 L91.5406698,93.5747664 Z M137.887243,32.6805394 C152.397595,32.6805394 159.652662,38.0005464 159.652662,48.6407199 L159.652662,86.1471439 L165.448553,87.6203913 L165.448553,91.6718218 L144.114742,91.6718218 L142.758257,87.2520795 C139.552004,89.4210379 136.654087,90.9045014 134.064421,91.7025144 C131.474755,92.5005274 128.864575,92.899528 126.233803,92.899528 C114.272011,92.899528 108.291205,87.1702897 108.291205,75.7116413 C108.291205,71.3737244 109.174967,67.9054891 110.942517,65.3068314 C112.710067,62.7081736 115.258589,60.7847865 118.58816,59.5366123 C121.751252,58.3508468 126.63933,57.6544621 133.252529,57.4474401 L141.833381,57.2346632 L141.833381,48.8248758 C141.833381,41.8678393 138.97657,38.3893732 133.262862,38.3893732 C129.809973,38.3893732 125.946085,39.4533746 121.67108,41.5814093 L119.328061,48.7634905 L115.258605,48.7634905 L115.258605,34.8290253 L119.152992,34.2530626 C123.412246,33.6412297 126.676819,33.2398288 128.946773,33.0488513 C131.865286,32.8033088 134.845412,32.6805394 137.887243,32.6805394 Z M141.833381,62.6979557 L136.654074,62.8821117 C132.66681,63.0458066 129.902486,64.0893465 128.361018,66.0127624 C126.81955,67.9361784 126.048828,71.0463363 126.048828,75.3433295 C126.048828,78.8218477 126.665406,81.3795434 127.89858,83.0164931 C129.131754,84.6534429 130.734857,85.4719055 132.707936,85.4719055 C135.503131,85.4719055 138.544916,84.7557507 141.833381,83.3234197 L141.833381,62.6979557 Z M208.609441,40.3537031 L199.853946,40.3537031 L199.853946,36.1181168 L208.609441,33.7240897 L208.609441,27.5241734 C208.609441,19.6668145 210.623596,13.6408836 214.651965,9.44619982 C218.680335,5.25151604 224.455615,3.15420561 231.977979,3.15420561 C236.047455,3.15420561 239.459186,3.54297535 242.213275,4.32052649 L242.213275,18.0708358 L238.267137,18.0708358 L236.479043,11.3798371 C235.492504,10.3976672 234.19769,9.90658964 232.594563,9.90658964 C228.483982,9.90658964 226.428722,15.1242888 226.428722,25.5598435 L226.428722,33.9696309 L238.205479,33.9696309 L238.205479,40.3537031 L226.428722,40.3537031 L226.428722,86.1471439 L235.862459,87.6203913 L235.862459,91.6718218 L202.320283,91.6718218 L202.320283,87.6203913 L208.609441,86.1471439 L208.609441,40.3537031 Z M267.396398,32.6805394 C281.90675,32.6805394 289.161817,38.0005464 289.161817,48.6407199 L289.161817,86.1471439 L294.957708,87.6203913 L294.957708,91.6718218 L273.623897,91.6718218 L272.267412,87.2520795 C269.061159,89.4210379 266.163242,90.9045014 263.573576,91.7025144 C260.98391,92.5005274 258.37373,92.899528 255.742958,92.899528 C243.781166,92.899528 237.80036,87.1702897 237.80036,75.7116413 C237.80036,71.3737244 238.684122,67.9054891 240.451672,65.3068314 C242.219222,62.7081736 244.767744,60.7847865 248.097315,59.5366123 C251.260407,58.3508468 256.148485,57.6544621 262.761684,57.4474401 L271.342536,57.2346632 L271.342536,48.8248758 C271.342536,41.8678393 268.485725,38.3893732 262.772017,38.3893732 C259.319128,38.3893732 255.45524,39.4533746 251.180235,41.5814093 L248.837216,48.7634905 L244.767761,48.7634905 L244.767761,34.8290253 L248.662147,34.2530626 C252.921401,33.6412297 256.185974,33.2398288 258.455928,33.0488513 C261.374441,32.8033088 264.354567,32.6805394 267.396398,32.6805394 Z M271.342536,62.6979557 L266.163229,62.8821117 C262.175966,63.0458066 259.411641,64.0893465 257.870173,66.0127624 C256.328705,67.9361784 255.557983,71.0463363 255.557983,75.3433295 C255.557983,78.8218477 256.174561,81.3795434 257.407735,83.0164931 C258.640909,84.6534429 260.244012,85.4719055 262.217091,85.4719055 C265.012286,85.4719055 268.054071,84.7557507 271.342536,83.3234197 L271.342536,62.6979557 Z M321.552123,45.9397663 C325.99155,41.028917 329.968478,37.499297 333.483025,35.3508004 C336.997572,33.2023038 340.214054,32.1280716 343.132567,32.1280716 L346.462121,32.1280716 L346.462121,53.1832328 L343.00925,53.1832328 L339.371404,45.4486838 C336.781737,45.4486838 333.842716,46.0113768 330.554251,47.1367798 C327.265786,48.2621828 324.367869,49.5819537 321.860415,51.0961322 L321.860415,86.1471439 L331.170835,87.6203913 L331.170835,91.6718218 L296.518807,91.6718218 L296.518807,87.6203913 L304.041134,86.1471439 L304.041134,39.4943088 L296.518807,38.0210613 L296.518807,33.9696309 L320.87388,33.9696309 L321.552123,45.9397663 Z M373.845307,32.5577688 C381.696517,32.5577688 387.379311,34.6448485 390.893858,38.8190704 C394.408405,42.9932923 396.165652,49.4796084 396.165652,58.2782134 L396.165652,63.3118088 L365.768055,63.3118088 L365.768055,64.2939738 C365.768055,70.3916117 366.261317,74.7294635 367.247857,77.3076594 C368.234396,79.8858552 369.837499,81.8501655 372.057213,83.2006491 C374.276927,84.5511326 377.318711,85.2263643 381.182658,85.2263643 C384.799969,85.2263643 389.362646,84.6329789 394.870825,83.4461903 L394.870825,88.1728591 C392.610005,89.5233427 389.68126,90.638498 386.084501,91.5183585 C382.487743,92.398219 378.983525,92.8381426 375.571742,92.8381426 C366.076299,92.8381426 359.057587,90.372524 354.515395,85.4412129 C349.973202,80.5099017 347.70214,72.8675071 347.70214,62.5137998 C347.70214,52.4465587 349.870439,44.9371643 354.207103,39.9853912 C358.543766,35.0336182 365.089768,32.5577688 373.845307,32.5577688 Z M373.167064,38.7576851 C370.700715,38.7576851 368.861258,40.0876868 367.648636,42.7477302 C366.436015,45.4077735 365.829713,50.1139335 365.829713,56.8663513 L379.271247,56.8663513 L379.263566,54.9984466 C379.225164,50.4975533 379.04275,47.2631712 378.716321,45.2952205 C378.346369,43.0648765 377.719515,41.4177205 376.83574,40.3537031 C375.951965,39.2896858 374.729085,38.7576851 373.167064,38.7576851 Z M424.818087,45.9397663 C429.257515,41.028917 433.234443,37.499297 436.74899,35.3508004 C440.263537,33.2023038 443.480019,32.1280716 446.398531,32.1280716 L449.728086,32.1280716 L449.728086,53.1832328 L446.275215,53.1832328 L442.637368,45.4486838 C440.047702,45.4486838 437.108681,46.0113768 433.820215,47.1367798 C430.53175,48.2621828 427.633834,49.5819537 425.126379,51.0961322 L425.126379,86.1471439 L434.4368,87.6203913 L434.4368,91.6718218 L399.784772,91.6718218 L399.784772,87.6203913 L407.307098,86.1471439 L407.307098,39.4943088 L399.784772,38.0210613 L399.784772,33.9696309 L424.139845,33.9696309 L424.818087,45.9397663 Z" id="Wafarer" fill="#FFFFFF" fill-rule="nonzero"></path>
            <g id="Martini-Glass" transform="translate(147.975749, 0.000000)">
                <polygon id="Triangle" fill="url(#linearGradient-1)" transform="translate(31.542056, 28.125000) scale(1, -1) translate(-31.542056, -28.125000) " points="35.0342123 3.61682243 52.4949933 52.6331776 10.5891188 52.6331776"></polygon>
                <ellipse id="Oval" stroke="#979797" stroke-width="0.5" cx="24.5577437" cy="12.953271" rx="2.07810414" ry="2.08411215"></ellipse>
                <ellipse id="Oval" stroke="#979797" stroke-width="0.5" cx="36.1982644" cy="8.28504673" rx="2.07810414" ry="2.08411215"></ellipse>
                <ellipse id="Oval" stroke="#A9A9A9" stroke-width="0.5" cx="31.5420561" cy="29.2920561" rx="2.07810414" ry="2.08411215"></ellipse>
                <ellipse id="Oval" stroke="#A2A2A2" stroke-width="0.5" cx="43.1825768" cy="17.6214953" rx="2.07810414" ry="2.08411215"></ellipse>
                <path d="M29.2139519,63.1366822 L5.32814912,7.32313723 L0.1126502,5.95093458 L0.0489911027,0.115654206 L12.917223,0.115654206 L33.8065011,50.2990654 L52.5586524,0.115654206 L64.135514,0.115654206 L64.135514,5.95093458 L57.5058737,7.07696134 L38.5263685,63.1366822 L38.5263685,106.317757 C43.1825768,107.095794 47.0627503,108.26285 50.1668892,109.818925 C50.1668892,110.596963 50.1668892,112.153037 50.1668892,114.48715 L38.5263685,114.48715 L29.2139519,114.48715 L16.4093792,114.337511 C16.3529703,112.980954 16.3529703,111.474759 16.4093792,109.818925 C19.513518,108.26285 23.7817089,107.095794 29.2139519,106.317757 C28.856292,78.3290358 28.856292,63.9353442 29.2139519,63.1366822 Z" id="y" fill="#FFFFFF" fill-rule="nonzero"></path>
            </g>
        </g>
    </g>
</svg>