<?xml version="1.0" encoding="UTF-8"?>
<svg width="192px" height="49px" viewBox="0 0 192 49" version="1.1" xmlns="http://www.w3.org/2000/svg" xmlns:xlink="http://www.w3.org/1999/xlink">
    <!-- Generator: Sketch 59.1 (86144) - https://sketch.com -->
    <title>Wayfarer-Logo</title>
    <desc>Created with Sketch.</desc>
    <defs>
        <linearGradient x1="50%" y1="0%" x2="50%" y2="100%" id="linearGradient-1">
            <stop stop-color="#AEAEAE" offset="0%"></stop>
            <stop stop-color="#898989" offset="100%"></stop>
        </linearGradient>
    </defs>
    <g id="Page-1" stroke="none" stroke-width="1" fill="none" fill-rule="evenodd">
        <g id="Artboard" transform="translate(-28.000000, -185.000000)">
            <g id="Wayfarer-Logo" transform="translate(28.000000, 177.000000)">
                <text id="Wa-farer" font-family="LiberationSerif-Bold, Liberation Serif" font-size="54" font-weight="bold" line-spacing="54" letter-spacing="-9" fill="#FFFFFF">
                    <tspan x="0" y="48">W</tspan>
                    <tspan x="45" y="48">a </tspan>
                    <tspan x="85.5" y="48" letter-spacing="-3.1">f</tspan>
                    <tspan x="100.382422" y="48" letter-spacing="-1.6">a</tspan>
                    <tspan x="125.782422" y="48" letter-spacing="-1.5">r</tspan>
                    <tspan x="147.274609" y="48" letter-spacing="-1.3">e</tspan>
                    <tspan x="169.942383" y="48">r</tspan>
                </text>
                <g id="Martini-Glass" transform="translate(63.000000, 8.000000)">
                    <polygon id="Triangle" fill="url(#linearGradient-1)" transform="translate(14.000000, 12.500000) scale(1, -1) translate(-14.000000, -12.500000) " points="15.5 2 23 23 5 23"></polygon>
                    <circle id="Oval" stroke="#979797" stroke-width="0.5" cx="11" cy="6" r="1"></circle>
                    <circle id="Oval" stroke="#979797" stroke-width="0.5" cx="16" cy="4" r="1"></circle>
                    <circle id="Oval" stroke="#A9A9A9" stroke-width="0.5" cx="14" cy="13" r="1"></circle>
                    <circle id="Oval" stroke="#A2A2A2" stroke-width="0.5" cx="19" cy="8" r="1"></circle>
                    <path d="M13,27.5 L2.74023437,3.58789063 L0.47265625,2.95507813 L0.47265625,0.5 L6,0.5 L14.9726562,22 L23.0273437,0.5 L28,0.5 L28,3 L25.1523437,3.48242188 L17,27.5 L17,46 C19,46.3333333 20.6666667,46.8333333 22,47.5 C22,47.8333333 22,48.3333333 22,49 L17,49 L13,49 L7.5,48.9358906 C7.47577046,48.6880365 7.47577046,48.2094062 7.5,47.5 C8.83333333,46.8333333 10.6666667,46.3333333 13,46 C12.8463729,34.0088362 12.8463729,27.8421695 13,27.5 Z" id="y" fill="#FFFFFF" fill-rule="nonzero"></path>
                </g>
            </g>
        </g>
    </g>
</svg>